#!OML:ASF I:\Actors\actors\Patient Classification 2\Patient 1\Session 1\actor1.ASF
:FULLY-SPECIFIED
:DEGREES
257
root -0.526094 18.7406 5.35679 2.08237 -1.20516 -0.642721
lowerback 4.05541 0.549171 2.7107
upperback 1.15093 0.86168 1.58854
thorax -1.07596 0.426781 0.0676154
lowerneck -12.4001 -3.05796 -3.12598
upperneck 35.3298 -4.12568 1.1547
head 14.258 -2.03754 0.379877
rclavicle 1.63997e-015 1.11319e-014
rhumerus -13.6051 40.6678 -73.7523
rradius 85.3505
rwrist 28.1702
rhand -14.69 -37.1602
rfingers 7.12502
rthumb 11.4637 -66.8267
lclavicle 1.63997e-015 1.11319e-014
lhumerus 6.53267 -47.134 76.1951
lradius 72.2713
lwrist 27.9248
lhand -5.20418 -3.58112
lfingers 7.12502
lthumb 20.5972 25.3461
rfemur 0 0 0
rtibia 0
rfoot 0 0
rtoes 0
lfemur -6.26466 -5.19266 -14.0258
ltibia 22.0257
lfoot -21.8724 13.9093
ltoes -54.484
258
root -0.534251 18.7403 5.34988 2.06695 -1.42781 -0.680297
lowerback 4.11033 0.67599 2.73025
upperback 1.17198 1.03343 1.63366
thorax -1.08236 0.512506 0.0941225
lowerneck -12.4956 -3.09815 -3.21243
upperneck 35.4142 -4.18655 1.23102
head 14.3253 -2.06297 0.414614
rclavicle -1.19271e-015 -1.59028e-015
rhumerus -12.3836 41.3981 -73.0499
rradius 84.5017
rwrist 28.3419
rhand -14.8671 -37.0657
rfingers 7.12502
rthumb 11.293 -66.7416
lclavicle -1.19271e-015 -1.59028e-015
lhumerus 6.7529 -47.1677 76.1143
lradius 72.2158
lwrist 28.061
lhand -5.14382 -3.48173
lfingers 7.12502
lthumb 20.6552 25.4392
rfemur 0 0 0
rtibia 0
rfoot 0 0
rtoes 0
lfemur -6.21022 -5.08206 -13.9675
ltibia 22.0133
lfoot -21.8933 13.9694
ltoes -54.484
259
root -0.540248 18.7397 5.34147 2.00039 -1.61243 -0.6921
lowerback 4.22879 0.794333 2.79069
upperback 1.18033 1.19821 1.64678
thorax -1.136 0.594131 0.0639733
lowerneck -12.5778 -3.15038 -3.31761
upperneck 35.5758 -4.25996 1.30068
head 14.4267 -2.09698 0.447945
rclavicle 1.84373e-014 1.03368e-014
rhumerus -11.3261 42.1076 -72.4626
rradius 83.6448
rwrist 28.5404
rhand -14.9249 -37.0277
rfingers 7.12502
rthumb 11.2372 -66.7067
lclavicle 1.84373e-014 1.03368e-014
lhumerus 6.98898 -47.1979 76.0752
lradius 72.1047
lwrist 28.1056
lhand -4.94296 -3.19516
lfingers 7.12502
lthumb 20.8482 25.7047
rfemur 0 0 0
rtibia 0
rfoot 0 0
rtoes 0
lfemur -6.11873 -4.99575 -13.9423
ltibia 22.0077
lfoot -21.9321 13.9904
ltoes -54.4226
260
root -0.544122 18.7399 5.33306 1.98816 -1.76209 -0.703831
lowerback 4.30111 0.908171 2.90837
upperback 1.15332 1.35856 1.64433
thorax -1.19825 0.673084 -0.0139401
lowerneck -12.5889 -3.21229 -3.44201
upperneck 35.7002 -4.34321 1.36983
head 14.4961 -2.13855 0.484324
rclavicle 6.11263e-015 -3.18055e-015
rhumerus -10.3724 42.2826 -71.8705
rradius 82.8057
rwrist 29.8094
rhand -13.4706 -35.8007
rfingers 7.12502
rthumb 12.6395 -65.3983
lclavicle 6.11263e-015 -3.18055e-015
lhumerus 7.16447 -47.306 76.0575
lradius 71.998
lwrist 28.2659
lhand -4.82399 -3.01674
lfingers 7.12502
lthumb 20.9625 25.8705
rfemur 0 0 0
rtibia 0
rfoot 0 0
rtoes 0
lfemur -6.09623 -4.84199 -13.9183
ltibia 21.9923
lfoot -21.9179 14.0092
ltoes -54.4533
261
root -0.548862 18.74 5.32544 1.98484 -1.86031 -0.683214
lowerback 4.33231 0.990877 2.97345
upperback 1.15238 1.47275 1.6417
thorax -1.2125 0.729761 -0.0594322
lowerneck -12.5972 -3.25459 -3.52179
upperneck 35.7585 -4.39041 1.38983
head 14.5302 -2.1657 0.49877
rclavicle -2.66371e-014 -5.56597e-015
rhumerus -9.83154 43.3872 -71.4961
rradius 82.1994
rwrist 28.7338
rhand -15.5276 -36.0001
rfingers 7.12502
rthumb 10.6558 -65.7099
lclavicle -2.66371e-014 -5.56597e-015
lhumerus 7.32826 -47.4106 75.9769
lradius 71.9343
lwrist 28.691
lhand -4.90279 -2.90586
lfingers 7.12502
lthumb 20.8868 25.9897
rfemur 0 0 0
rtibia 0
rfoot 0 0
rtoes 0
lfemur -6.09256 -4.68844 -13.9265
ltibia 21.9777
lfoot -21.8543 14.0367
ltoes -54.5146
262
root -0.554561 18.7394 5.3172 1.92403 -1.88774 -0.64799
lowerback 4.4128 1.03641 2.99611
upperback 1.18345 1.53704 1.65571
thorax -1.22388 0.76186 -0.0623158
lowerneck -12.6485 -3.2795 -3.54666
upperneck 35.829 -4.3892 1.30871
head 14.5735 -2.17802 0.469017
rclavicle 2.78299e-015 -5.56597e-015
rhumerus -9.21538 44.0357 -70.9418
rradius 81.7145
rwrist 28.8848
rhand -15.7332 -35.6445
rfingers 7.12502
rthumb 10.4575 -65.3644
lclavicle 2.78299e-015 -5.56597e-015
lhumerus 7.51513 -47.4103 75.935
lradius 71.8446
lwrist 29.0203
lhand -5.05939 -2.82121
lfingers 7.12502
lthumb 20.7364 26.0909
rfemur 0 0 0
rtibia 0
rfoot 0 0
rtoes 0
lfemur -6.05276 -4.66961 -13.9551
ltibia 21.9778
lfoot -21.8052 14.1337
ltoes -54.5891
263
root -0.560596 18.7396 5.30923 1.86381 -1.84959 -0.66537
lowerback 4.49364 1.07168 3.07373
upperback 1.22325 1.59016 1.68607
thorax -1.22567 0.788468 -0.0785204
lowerneck -12.6946 -3.31415 -3.57203
upperneck 35.8467 -4.39459 1.21171
head 14.5907 -2.19545 0.431998
rclavicle -1.88845e-014 -3.73715e-014
rhumerus -8.67464 44.6247 -70.2885
rradius 81.367
rwrist 29.0152
rhand -15.6209 -35.2093
rfingers 7.12502
rthumb 10.5659 -64.9237
lclavicle -1.88845e-014 -3.73715e-014
lhumerus 7.77256 -47.3417 75.9025
lradius 71.692
lwrist 28.8999
lhand -5.37196 -2.8235
lfingers 7.12502
lthumb 20.436 26.1211
rfemur 0 0 0
rtibia 0
rfoot 0 0
rtoes 0
lfemur -6.03576 -4.65173 -13.9122
ltibia 21.9854
lfoot -21.7344 14.13
ltoes -54.7119
264
root -0.563483 18.7394 5.30047 1.81177 -1.75282 -0.6983
lowerback 4.56071 1.0931 3.22637
upperback 1.26412 1.62737 1.69511
thorax -1.21618 0.807195 -0.157378
lowerneck -12.6923 -3.36544 -3.62638
upperneck 35.7936 -4.44185 1.1846
head 14.568 -2.22588 0.423193
rclavicle -7.35503e-015 -1.90833e-014
rhumerus -8.18912 45.0852 -69.5603
rradius 81.1224
rwrist 29.3166
rhand -15.5591 -34.6397
rfingers 7.12502
rthumb 10.6254 -64.3511
lclavicle -7.35503e-015 -1.90833e-014
lhumerus 8.05919 -47.1976 75.8443
lradius 71.4591
lwrist 28.308
lhand -5.16368 -3.01595
lfingers 7.12502
lthumb 20.6361 25.907
rfemur 0 0 0
rtibia 0
rfoot 0 0
rtoes 0
lfemur -6.04282 -4.64162 -13.8523
ltibia 21.9948
lfoot -21.6678 14.0143
ltoes -54.7232
265
root -0.563471 18.7383 5.2915 1.78427 -1.5969 -0.712028
lowerback 4.5909 1.08136 3.38415
upperback 1.27834 1.62005 1.70559
thorax -1.21443 0.803444 -0.234789
lowerneck -12.638 -3.41148 -3.77708
upperneck 35.7638 -4.48568 1.23693
head 14.5501 -2.25762 0.465266
rclavicle -1.77912e-014 4.77083e-015
rhumerus -7.77927 45.5566 -68.7523
rradius 80.9278
rwrist 29.6439
rhand -15.6843 -34.1159
rfingers 7.12502
rthumb 10.5047 -63.8334
lclavicle -1.77912e-014 4.77083e-015
lhumerus 8.23953 -47.0983 75.8523
lradius 71.3173
lwrist 28.0743
lhand -4.54618 -3.1816
lfingers 7.12502
lthumb 21.2294 25.6759
rfemur 0 0 0
rtibia 0
rfoot 0 0
rtoes 0
lfemur -6.09879 -4.66893 -13.827
ltibia 22.009
lfoot -21.5505 13.9637
ltoes -54.7825
266
root -0.56675 18.7387 5.28781 1.83045 -1.38395 -0.702634
lowerback 4.48134 1.04362 3.43338
upperback 1.26921 1.56765 1.74427
thorax -1.16383 0.777876 -0.21755
lowerneck -12.5907 -3.43503 -3.95169
upperneck 35.7969 -4.48482 1.27271
head 14.5621 -2.27559 0.51153
rclavicle 2.18663e-014 1.98785e-014
rhumerus -7.45468 46.1212 -67.8473
rradius 80.81
rwrist 29.7267
rhand -15.8903 -33.7585
rfingers 7.12502
rthumb 10.306 -63.486
lclavicle 2.18663e-014 1.98785e-014
lhumerus 8.32809 -47.1199 75.8666
lradius 71.3499
lwrist 28.3808
lhand -4.44455 -3.03973
lfingers 7.12502
lthumb 21.327 25.8067
rfemur 0 0 0
rtibia 0
rfoot 0 0
rtoes 0
lfemur -6.22975 -4.71341 -13.8107
ltibia 22.0278
lfoot -21.3914 13.9311
ltoes -54.9492
267
root -0.573588 18.7392 5.2881 1.89631 -1.10149 -0.707005
lowerback 4.30577 0.991521 3.44021
upperback 1.26385 1.49086 1.78919
thorax -1.07445 0.740769 -0.167773
lowerneck -12.573 -3.44611 -4.04184
upperneck 35.8539 -4.47098 1.25953
head 14.5872 -2.28293 0.524406
rclavicle 1.77912e-014 5.56597e-015
rhumerus -7.19848 46.5918 -66.9151
rradius 80.7584
rwrist 29.7445
rhand -15.9668 -33.6221
rfingers 7.12502
rthumb 10.2322 -63.3532
lclavicle 1.77912e-014 5.56597e-015
lhumerus 8.44479 -47.17 75.8135
lradius 71.3157
lwrist 28.5095
lhand -4.77342 -2.95714
lfingers 7.12502
lthumb 21.0111 25.9247
rfemur 0 0 0
rtibia 0
rfoot 0 0
rtoes 0
lfemur -6.37281 -4.77639 -13.7549
ltibia 22.0471
lfoot -21.2556 13.7715
ltoes -55.0582
268
root -0.579867 18.74 5.28637 1.93675 -0.758679 -0.716544
lowerback 4.19486 0.919504 3.46208
upperback 1.26229 1.3912 1.83663
thorax -1.01748 0.691813 -0.124302
lowerneck -12.5785 -3.44995 -4.09263
upperneck 35.8933 -4.44519 1.2169
head 14.6068 -2.28361 0.519855
rclavicle -1.63997e-014 1.27222e-014
rhumerus -6.99308 46.9559 -65.9943
rradius 80.6971
rwrist 29.7202
rhand -16.0485 -33.4202
rfingers 7.12502
rthumb 10.1534 -63.1553
lclavicle -1.63997e-014 1.27222e-014
lhumerus 8.57097 -47.1752 75.8018
lradius 71.2118
lwrist 28.5025
lhand -5.29158 -2.98892
lfingers 7.12502
lthumb 20.5132 25.9474
rfemur 0 0 0
rtibia 0
rfoot 0 0
rtoes 0
lfemur -6.50678 -4.84107 -13.6878
ltibia 22.0714
lfoot -21.1498 13.5166
ltoes -55.1155
269
root -0.583508 18.742 5.2828 1.9811 -0.379272 -0.702659
lowerback 4.12347 0.823472 3.50281
upperback 1.24994 1.26246 1.87004
thorax -0.993603 0.627801 -0.105479
lowerneck -12.5966 -3.45377 -4.12849
upperneck 35.9224 -4.40693 1.13034
head 14.6222 -2.28295 0.496372
rclavicle 1.80894e-014 -3.18055e-015
rhumerus -6.83677 47.2499 -65.0616
rradius 80.6676
rwrist 29.6945
rhand -15.9454 -33.0221
rfingers 7.12502
rthumb 10.2528 -62.7522
lclavicle 1.80894e-014 -3.18055e-015
lhumerus 8.68661 -47.1505 75.7956
lradius 71.1729
lwrist 28.5708
lhand -5.56288 -2.92219
lfingers 7.12502
lthumb 20.2525 26.042
rfemur 0 0 0
rtibia 0
rfoot 0 0
rtoes 0
lfemur -6.66472 -5.0016 -13.6579
ltibia 22.1061
lfoot -21.0773 13.3589
ltoes -55.1385
